<svg id="Capa_1" data-name="Capa 1" xmlns="http://www.w3.org/2000/svg" xmlns:xlink="http://www.w3.org/1999/xlink" viewBox="0 0 100.99 129.15"><defs><linearGradient id="Degradado_sin_nombre_2" y1="64.58" x2="100.99" y2="64.58" gradientUnits="userSpaceOnUse"><stop offset="0" stop-color="#ff931e"/><stop offset="1" stop-color="#ff1d25"/></linearGradient><linearGradient id="Degradado_sin_nombre_2-2" x1="14.56" y1="64.79" x2="86.29" y2="64.79" xlink:href="#Degradado_sin_nombre_2"/></defs><title>clogo</title><path d="M64.57,129.15A64.63,64.63,0,0,1,5.16,89.8h0A64.55,64.55,0,0,1,37.73,5.88v0L39,5.34l.36-.16.08,0a64.14,64.14,0,0,1,49.36-.42l0,0A18.35,18.35,0,0,1,75,38.77a27.67,27.67,0,0,0-21.22.13l-.11.05A27.84,27.84,0,1,0,75.45,90.21l.13,0a18.35,18.35,0,0,1,14.89,33.53v0l-.47.2-.16.07-.08,0-.33.14-1.25.53h0A64.38,64.38,0,0,1,64.57,129.15ZM40.07,11.3A58.29,58.29,0,0,0,10.59,87.49h0a58.3,58.3,0,0,0,75.3,31.72h0l1.15-.46.74-.32a12.44,12.44,0,0,0-10-22.78l-.13,0A33.75,33.75,0,0,1,51.28,33.56l.12-.05a33.5,33.5,0,0,1,25.82-.22,12.45,12.45,0,0,0,9.37-23.06l0,0a58.25,58.25,0,0,0-44.21.11h0l-1.1.47-1.14.52Z" style="fill:url(#Degradado_sin_nombre_2)"/><path d="M80.38,103a5.91,5.91,0,0,0-5.9,5.91c0,.1,0,.21,0,.31a45.65,45.65,0,1,1,0-88.78,3,3,0,0,0,0,.31A5.91,5.91,0,1,0,75.82,17,49.29,49.29,0,0,0,29,99.64a49.32,49.32,0,0,0,46.82,13A5.9,5.9,0,1,0,80.38,103Z" style="fill:url(#Degradado_sin_nombre_2-2)"/></svg>