<svg id="Capa_1" data-name="Capa 1" xmlns="http://www.w3.org/2000/svg" viewBox="0 0 100 100"><title>elementary</title><path d="M50,0a50,50,0,1,0,50,50A50,50,0,0,0,50,0ZM13.77,74.33c-.6.07-1.19.12-1.78.15l-.59,0A45.72,45.72,0,1,1,95.66,47.88c-.42,1.17-.88,2.34-1.39,3.48a37.71,37.71,0,0,1-3.82,6.73A24.41,24.41,0,0,1,88,61q-.67.66-1.38,1.26c-.48.39-1,.75-1.49,1.09a14.76,14.76,0,0,1-1.6.89,12.16,12.16,0,0,1-1.68.65,13,13,0,0,1-1.75.4c-.3,0-.6.08-.88.09l-.21,0h-.71l-.76,0a33.56,33.56,0,0,0,3.61-4.81A21.85,21.85,0,0,0,83,56.83a14.14,14.14,0,0,0,.6-2.1,8.59,8.59,0,0,0,.15-2.35,5.53,5.53,0,0,0-.24-1.28,4.75,4.75,0,0,0-.63-1.28,4.28,4.28,0,0,0-1.08-1,4.53,4.53,0,0,0-1.29-.59A6.57,6.57,0,0,0,79.23,48h-.87l-.3,0a7.55,7.55,0,0,0-2.33.56A6.24,6.24,0,0,0,73.66,50a7.16,7.16,0,0,0-1.36,2,2.72,2.72,0,0,0-.11.25c-.1-.12-.21-.23-.32-.34a5.88,5.88,0,0,0-2.21-1.4,5.58,5.58,0,0,0-1.32-.29c-.22,0-.44,0-.66,0h-.23l-.21,0c-.13,0-.27,0-.4.09a3.68,3.68,0,0,0-1.44.79,4.27,4.27,0,0,0-.91,1.16,6.4,6.4,0,0,0-.74,2.44,10.75,10.75,0,0,0,.53,4.57,12.62,12.62,0,0,0,2.18,4,13.14,13.14,0,0,0,3.42,2.93,12.82,12.82,0,0,0,1.43.73,38.81,38.81,0,0,1-10,5.8,39.55,39.55,0,0,1-7.15,2.08,41.08,41.08,0,0,1-7.41.73,34.06,34.06,0,0,1-3.67-.17c-.6-.06-1.2-.14-1.79-.25s-1.18-.23-1.76-.37a23,23,0,0,1-6.06-2.44c2.35-1.27,4.62-2.65,6.83-4.12A76.64,76.64,0,0,0,52.66,58a55.36,55.36,0,0,0,5.22-6.18c.79-1.1,1.54-2.25,2.23-3.43A37.27,37.27,0,0,0,62,44.67a28.89,28.89,0,0,0,2.27-8c.08-.7.14-1.4.16-2.11,0-.18,0-.35,0-.53v-.57l0-.49v-.51l0-.56,0-.28,0-.27-.08-.54c0-.17-.06-.35-.09-.53a19.67,19.67,0,0,0-.52-2.11,17.46,17.46,0,0,0-1.84-3.94l-.31-.45-.15-.23-.16-.22-.33-.43-.35-.42-.17-.21-.18-.2-.37-.4-.39-.38-.19-.19L59,20.89a16.66,16.66,0,0,0-1.69-1.35c-.3-.19-.6-.4-.91-.58s-.31-.19-.47-.27l-.47-.25a17.66,17.66,0,0,0-4-1.48c-.35-.07-.7-.16-1-.21l-.53-.09-.52-.06c-.36-.05-.71-.06-1.07-.09l-.53,0h-1l-.55,0c-.19,0-.36,0-.54,0l-.52.05c-.7.08-1.4.2-2.09.34A25.55,25.55,0,0,0,35.24,20a35,35,0,0,0-6.52,5,40.76,40.76,0,0,0-5.28,6.28,39.07,39.07,0,0,0-3.94,7.25,32.65,32.65,0,0,0-2.21,8.11c-.09.71-.15,1.42-.19,2.14,0,.36,0,.72,0,1.08v1c0,.73.05,1.41.1,2.11s.12,1.39.21,2.08a36.74,36.74,0,0,0,.81,4.13,32.17,32.17,0,0,0,1.35,4,29,29,0,0,0,1.93,3.81A27.12,27.12,0,0,0,24,70.55c.25.28.5.56.76.83l-.28.11a50.11,50.11,0,0,1-7.13,2.21A35.08,35.08,0,0,1,13.77,74.33Zm60-9.55a7.46,7.46,0,0,1-2.68-1.24,10.13,10.13,0,0,1-2.38-2.09,8.74,8.74,0,0,1-2.18-5.78c0-1.61.43-2.68,1.36-2.68a2.08,2.08,0,0,1,.64.1l.23.06.33.15a14.42,14.42,0,0,1,3.76,3.06s1.58-5.53,5.85-5.53A2.83,2.83,0,0,1,80,51.1l.07,0,0,0,.07,0a1.6,1.6,0,0,1,.61,1.39,5.59,5.59,0,0,1-.14,1.54v0C79.68,59.86,73.74,64.78,73.74,64.78ZM29.56,69.29a19.81,19.81,0,0,1-1.76-1.91c-.37-.46-.72-.92-1.05-1.4s-.63-1-.92-1.49a23,23,0,0,1-1.53-3.16,28.76,28.76,0,0,1-1.75-6.9c-.08-.59-.14-1.19-.18-1.79s-.08-1.22-.09-1.79v-.93c0-.29,0-.58,0-.87,0-.57.07-1.16.14-1.74a30.75,30.75,0,0,1,1.68-7c.42-1.14.88-2.27,1.41-3.37s1.1-2.19,1.72-3.25a37.73,37.73,0,0,1,4.35-5.94,30.37,30.37,0,0,1,2.61-2.59A28.47,28.47,0,0,1,37.09,23a20.93,20.93,0,0,1,6.57-3c.58-.13,1.16-.25,1.75-.33l.45-.05.43,0,.43,0h1.35c.3,0,.59,0,.88.06l.44,0,.44.08c.29,0,.57.11.86.17a12.68,12.68,0,0,1,6,3.36l.16.15.14.16.29.32.28.33.13.17.13.17.26.35.24.36.12.18.11.18.21.37a14,14,0,0,1,1.62,4.87c0,.15,0,.29.06.43l0,.43,0,.22,0,.21,0,.4v1.36l0,.44c0,.59-.09,1.18-.17,1.77A25,25,0,0,1,58.3,43a36.31,36.31,0,0,1-3.75,6.34,50.48,50.48,0,0,1-4.86,5.7,67.27,67.27,0,0,1-5.6,5.06,75,75,0,0,1-6.15,4.44A75.93,75.93,0,0,1,29.56,69.29ZM50,95.71A45.62,45.62,0,0,1,14.91,79.3c1.24-.23,2.46-.52,3.65-.85a63.7,63.7,0,0,0,7.66-2.7q1.19-.51,2.37-1l.22.15c.59.41,1.2.79,1.82,1.14a26.6,26.6,0,0,0,8,2.94c.68.14,1.38.26,2.07.34s1.38.16,2.08.2,1.38.06,2.07.07h1c.31,0,.66,0,1,0a45.61,45.61,0,0,0,15.79-3.57A43.18,43.18,0,0,0,75,68a19.46,19.46,0,0,0,3.31.28h.8l.29,0c.4,0,.75-.07,1.12-.12a15.86,15.86,0,0,0,2.17-.49,15.26,15.26,0,0,0,2.07-.8,18.7,18.7,0,0,0,1.91-1.07,20.38,20.38,0,0,0,1.76-1.29C89,64,89.51,63.5,90,63a26.92,26.92,0,0,0,2.74-3.23,37.43,37.43,0,0,0,2.63-4.25A45.71,45.71,0,0,1,50,95.71Z" style="fill:#fff"/></svg>