<?xml version="1.0" encoding="UTF-8"?>
<svg xmlns="http://www.w3.org/2000/svg" xmlns:xlink="http://www.w3.org/1999/xlink" width="60pt" height="60pt" viewBox="0 0 60 60" version="1.1">
<g id="surface638820">
<path style=" stroke:none;fill-rule:nonzero;fill:rgb(100%,100%,100%);fill-opacity:1;" d="M 48 8 L 12 8 C 9.789062 8 8 9.789062 8 12 L 8 48 C 8 50.210938 9.789062 52 12 52 L 48 52 C 50.210938 52 52 50.210938 52 48 L 52 12 C 52 9.789062 50.210938 8 48 8 Z M 45.085938 42 L 33.222656 42 L 33.222656 41.335938 L 36 38.890625 L 36 24.941406 L 29.179688 42 L 28.113281 42 L 20.5 24.804688 L 20.5 36.980469 L 23.980469 41.335938 L 23.980469 42 L 14.914062 42 L 14.914062 41.335938 L 18.515625 36.980469 L 18.515625 22.496094 L 15.316406 18.496094 C 15.316406 18.496094 15.316406 17.921875 15.316406 18.011719 L 24.066406 18.011719 L 30.867188 32.714844 L 36.730469 18.011719 L 45.039062 18.011719 L 45.039062 18.496094 L 42 21.050781 L 42 38.890625 L 45.085938 41.335938 Z M 45.085938 42 "/>
</g>
</svg>
