<?xml version="1.0" standalone="no"?>
<!DOCTYPE svg PUBLIC "-//W3C//DTD SVG 20010904//EN"
 "http://www.w3.org/TR/2001/REC-SVG-20010904/DTD/svg10.dtd">
<svg version="1.0" xmlns="http://www.w3.org/2000/svg"
 width="300.000000pt" height="300.000000pt" viewBox="0 0 300.000000 300.000000"
 preserveAspectRatio="xMidYMid meet">
<metadata>
Created by potrace 1.11, written by Peter Selinger 2001-2013
</metadata>
<g transform="translate(0.000000,300.000000) scale(0.100000,-0.100000)"
fill="#000000" stroke="none">
<path d="M440 2977 c-135 -41 -240 -112 -318 -218 -41 -56 -89 -149 -97 -187
-2 -11 -8 -37 -14 -58 -13 -45 -10 -2000 2 -2047 62 -231 232 -400 452 -451
62 -14 179 -15 1060 -13 l990 2 65 22 c182 62 316 193 389 381 l26 67 3 987
c3 1088 4 1067 -59 1198 -32 65 -94 149 -136 183 -13 10 -29 25 -37 32 -29 30
-146 86 -217 104 -71 19 -117 20 -1054 20 l-980 0 -75 -22z"/>
</g>
</svg>
